#tb 0: 1/25
0,          0,          0,        1,   253440, 0x9022e010
0,          1,          1,        1,   253440, 0x97dba833
0,          2,          2,        1,   253440, 0x7f24bea0
0,          3,          3,        1,   253440, 0x7cfd0cde
0,          4,          4,        1,   253440, 0x14eda178
0,          5,          5,        1,   253440, 0x7fe9349b
0,          6,          6,        1,   253440, 0x4833e264
0,          7,          7,        1,   253440, 0x350513b1
0,          8,          8,        1,   253440, 0xd226079b
0,          9,          9,        1,   253440, 0xced95e1a
0,         10,         10,        1,   253440, 0xb8d4245d
0,         11,         11,        1,   253440, 0x60ae8c55
0,         12,         12,        1,   253440, 0x4edd6b42
0,         13,         13,        1,   253440, 0x13fb471a
0,         14,         14,        1,   253440, 0x2d8f1578
0,         15,         15,        1,   253440, 0x1d16012b
0,         16,         16,        1,   253440, 0x6c19b661
0,         17,         17,        1,   253440, 0x402d916a
0,         18,         18,        1,   253440, 0x1dd4a963
0,         19,         19,        1,   253440, 0x221ee04d
0,         20,         20,        1,   253440, 0xb069c690
0,         21,         21,        1,   253440, 0xb5ef43fd
0,         22,         22,        1,   253440, 0x602115eb
0,         23,         23,        1,   253440, 0x1467aed9
0,         24,         24,        1,   253440, 0x37680a1c
0,         25,         25,        1,   253440, 0x3fa825d5
0,         26,         26,        1,   253440, 0xfb0b654a
0,         27,         27,        1,   253440, 0x0cea074b
0,         28,         28,        1,   253440, 0xdb20b79a
0,         29,         29,        1,   253440, 0xb08848f0
0,         30,         30,        1,   253440, 0xa06d6774
0,         31,         31,        1,   253440, 0x452d1ba3
0,         32,         32,        1,   253440, 0x96bea378
0,         33,         33,        1,   253440, 0x16b5a370
0,         34,         34,        1,   253440, 0x433b9208
0,         35,         35,        1,   253440, 0x1f475d36
0,         36,         36,        1,   253440, 0x66dc3561
0,         37,         37,        1,   253440, 0x7edadddd
0,         38,         38,        1,   253440, 0xf6fc858a
0,         39,         39,        1,   253440, 0xf1f369d8
0,         40,         40,        1,   253440, 0x3877f958
0,         41,         41,        1,   253440, 0x22ef4692
0,         42,         42,        1,   253440, 0x6ff4614a
0,         43,         43,        1,   253440, 0x49712513
0,         44,         44,        1,   253440, 0x438213e5
0,         45,         45,        1,   253440, 0x54da2895
0,         46,         46,        1,   253440, 0xb478205e
0,         47,         47,        1,   253440, 0xffcfe69a
0,         48,         48,        1,   253440, 0x1639fafd
0,         49,         49,        1,   253440, 0x59d18f46
